<?xml version="1.0" standalone="no"?>
<!DOCTYPE svg PUBLIC "-//W3C//DTD SVG 20010904//EN"
 "http://www.w3.org/TR/2001/REC-SVG-20010904/DTD/svg10.dtd">
<svg version="1.0" xmlns="http://www.w3.org/2000/svg"
 width="598.000000pt" height="598.000000pt" viewBox="0 0 598.000000 598.000000"
 preserveAspectRatio="xMidYMid meet">
<metadata>
Created by potrace 1.11, written by Peter Selinger 2001-2013
</metadata>
<g transform="translate(0.000000,598.000000) scale(0.100000,-0.100000)"
fill="#000000" stroke="none">
<path d="M1995 5881 c-3 -5 -2 -12 3 -15 5 -3 9 1 9 9 0 17 -3 19 -12 6z"/>
<path d="M2139 5883 c-1 -5 -1 -11 0 -15 0 -4 -12 -6 -27 -4 -15 1 -37 -1 -48
-5 -13 -5 -27 -3 -34 4 -10 9 -11 9 -6 0 5 -9 0 -13 -13 -14 -28 -2 -34 -3
-46 -10 -5 -4 -18 -5 -27 -4 -10 2 -18 -1 -18 -7 0 -6 -7 -4 -17 3 -11 10 -14
10 -9 2 4 -7 2 -13 -3 -13 -18 0 -26 5 -23 13 1 5 -2 6 -7 2 -6 -3 -7 -13 -4
-22 5 -12 2 -15 -10 -10 -9 3 -17 2 -17 -3 0 -15 -60 -42 -77 -35 -14 5 -14 3
-2 -12 12 -15 12 -16 -3 -10 -12 4 -18 1 -18 -9 0 -8 -4 -12 -10 -9 -5 3 -10
0 -10 -7 -1 -20 -60 -80 -74 -75 -9 4 -11 -2 -8 -20 4 -19 2 -24 -8 -18 -9 5
-10 2 -5 -14 4 -14 2 -23 -8 -27 -9 -3 -13 -13 -10 -25 3 -11 0 -19 -6 -19 -7
0 -9 -5 -6 -10 4 -6 1 -18 -7 -27 -7 -9 -8 -14 -3 -11 13 8 14 -71 1 -91 -6
-9 -5 -12 1 -8 13 8 27 -39 17 -55 -4 -6 -3 -8 3 -5 6 4 16 -7 23 -23 7 -17
16 -30 21 -30 5 0 9 -6 9 -13 0 -32 138 -125 215 -143 38 -10 170 -10 210 -2
54 12 80 21 93 31 6 5 12 6 12 2 0 -3 15 2 33 13 72 45 215 110 262 120 98 21
177 -3 249 -75 41 -41 102 -152 110 -199 2 -16 5 -29 6 -29 14 0 25 -234 16
-320 -10 -94 -18 -150 -21 -155 -2 -3 -6 -23 -9 -44 -16 -98 -87 -283 -105
-272 -5 4 -7 -2 -5 -11 3 -10 -6 -30 -18 -45 -13 -15 -39 -46 -58 -69 -59 -72
-101 -110 -112 -103 -6 4 -8 3 -4 -4 6 -10 -81 -79 -96 -75 -3 1 -12 -4 -18
-12 -15 -18 -34 -20 -24 -2 4 6 -1 4 -12 -5 -16 -14 -23 -15 -33 -5 -10 9 -11
8 -5 -8 7 -18 6 -19 -10 -6 -9 8 -16 10 -14 5 2 -5 -1 -9 -7 -9 -5 0 -9 6 -9
12 1 7 -3 10 -8 7 -5 -3 -7 -12 -4 -19 5 -15 -49 -41 -78 -36 -11 1 -16 -2
-12 -8 5 -7 -3 -11 -18 -11 -14 0 -26 -5 -26 -11 0 -5 -4 -7 -10 -4 -5 3 -10
1 -10 -5 0 -6 -14 -2 -32 10 -28 18 -30 19 -11 2 17 -15 20 -22 10 -30 -6 -6
-15 -11 -19 -11 -15 -3 -43 -15 -48 -21 -10 -13 -70 -39 -63 -27 4 7 -8 -3
-26 -21 -18 -17 -37 -30 -42 -26 -5 3 -9 2 -9 -3 0 -4 -12 -16 -25 -26 -17
-12 -23 -13 -19 -4 3 8 -1 14 -10 14 -8 0 -12 -5 -10 -12 5 -11 -39 -55 -73
-74 -15 -7 -23 -7 -32 2 -10 9 -11 8 -6 -4 7 -18 -29 -59 -51 -59 -6 0 -14 -7
-18 -15 -3 -8 -10 -15 -16 -15 -6 0 -8 4 -5 10 4 6 -1 7 -11 3 -12 -4 -14 -8
-5 -11 9 -3 8 -9 -5 -23 -9 -10 -21 -16 -26 -13 -4 3 -7 2 -6 -3 1 -4 -10 -21
-26 -38 -16 -16 -26 -24 -21 -16 5 10 4 12 -3 7 -7 -4 -12 -11 -12 -16 0 -5
-11 -21 -25 -35 -26 -25 -41 -33 -30 -15 3 6 -1 7 -10 3 -13 -5 -14 -7 -3 -14
8 -6 9 -12 3 -16 -6 -5 -23 -23 -38 -41 -15 -19 -27 -30 -28 -25 -1 4 -4 -3
-8 -16 -4 -14 -13 -27 -20 -29 -9 -3 -11 0 -6 8 5 8 4 11 -3 6 -6 -4 -9 -13
-5 -21 3 -8 0 -15 -7 -15 -6 0 -9 -4 -5 -9 7 -13 -24 -43 -37 -35 -7 4 -8 2
-4 -5 4 -6 -2 -24 -13 -40 -12 -16 -21 -34 -21 -40 0 -6 -4 -11 -10 -11 -5 0
-12 -11 -16 -25 -3 -13 -12 -29 -20 -36 -8 -6 -11 -16 -7 -22 4 -6 0 -8 -10
-4 -10 3 -17 2 -17 -3 0 -6 5 -10 11 -10 6 0 3 -7 -5 -16 -9 -8 -16 -20 -16
-25 0 -6 -4 -8 -9 -5 -4 3 -6 -6 -3 -19 2 -15 0 -25 -7 -25 -7 0 -9 5 -5 12 5
7 3 8 -5 4 -7 -5 -10 -11 -7 -14 3 -3 0 -12 -7 -20 -9 -13 -9 -14 0 -8 7 4 13
3 13 -3 0 -5 -3 -11 -7 -13 -9 -3 -42 -90 -49 -128 -3 -14 -9 -29 -15 -35 -5
-5 -9 -20 -9 -33 0 -13 -3 -21 -7 -19 -5 3 -9 -5 -9 -16 -2 -25 -5 -45 -29
-171 -19 -100 -25 -174 -24 -291 1 -113 0 -117 -3 -120 -13 -12 -281 -94 -290
-89 -6 4 -8 3 -5 -2 3 -6 -6 -15 -21 -21 -58 -26 -87 -36 -94 -35 -5 1 -8 -3
-8 -9 0 -5 -4 -7 -10 -4 -5 3 -10 1 -10 -5 0 -6 -4 -9 -9 -6 -5 3 -14 -1 -21
-9 -15 -18 -55 -21 -44 -3 4 7 3 8 -4 4 -6 -4 -8 -14 -5 -23 4 -11 3 -14 -5
-9 -7 4 -12 2 -12 -6 0 -10 -2 -10 -9 1 -5 8 -8 23 -6 33 2 10 0 16 -5 13 -4
-3 -6 -18 -4 -34 4 -26 0 -32 -31 -46 -19 -10 -35 -21 -35 -26 0 -5 -7 -9 -15
-9 -8 0 -15 -4 -15 -10 0 -5 -5 -10 -11 -10 -5 0 -8 4 -5 9 4 5 -4 6 -16 3
-19 -5 -20 -7 -5 -10 22 -4 22 -22 0 -22 -9 0 -13 -3 -10 -7 4 -3 -4 -16 -18
-28 -13 -13 -21 -25 -19 -28 3 -3 1 -14 -5 -26 -8 -13 -8 -22 -1 -26 6 -4 8
-11 5 -16 -4 -5 -1 -9 4 -9 6 0 11 -6 11 -12 0 -12 21 -27 85 -63 41 -23 205
-77 278 -91 10 -2 26 -5 35 -8 9 -3 33 -8 52 -11 19 -3 43 -8 53 -11 11 -3 29
-7 40 -8 12 -2 36 -6 52 -9 39 -9 72 -14 175 -27 125 -16 165 -22 166 -23 1
-1 21 -38 44 -82 36 -66 120 -199 152 -240 125 -160 306 -347 404 -417 24 -17
44 -35 44 -40 0 -4 4 -8 9 -8 4 0 51 -28 102 -62 90 -60 113 -74 222 -131 52
-28 240 -107 266 -112 9 -2 28 -8 44 -14 15 -6 38 -13 50 -16 12 -2 39 -9 60
-14 20 -5 37 -7 37 -4 0 3 6 0 14 -6 8 -6 18 -11 22 -10 5 1 20 -1 34 -4 124
-31 427 -38 560 -13 8 1 38 7 65 11 28 5 52 10 55 10 3 1 19 5 35 9 17 5 56
17 89 28 32 11 63 21 70 23 6 1 24 7 39 13 16 7 30 12 33 12 6 0 215 104 255
127 61 36 204 126 209 132 3 3 23 19 45 36 22 16 44 35 48 42 10 17 31 17 21
1 -4 -8 -3 -10 2 -5 5 5 9 12 9 17 0 4 38 46 85 93 47 47 101 104 120 127 19
24 45 53 58 66 13 13 20 24 17 24 -6 0 9 20 39 50 11 11 16 20 10 20 -5 0 -4
4 1 8 15 10 89 131 110 180 11 23 22 42 27 42 4 0 7 3 6 8 -3 8 23 75 32 82
11 9 86 192 115 282 l29 86 85 28 c47 15 88 29 91 29 3 1 18 7 33 13 16 7 30
12 32 12 2 0 16 5 32 12 15 6 33 12 38 13 31 8 182 73 274 119 169 84 258 148
269 194 7 30 3 77 -8 80 -5 2 -10 9 -10 15 0 12 -15 24 -74 56 -29 16 -149 63
-171 67 -10 2 -79 19 -120 30 -45 12 -274 55 -320 60 -61 8 -84 19 -84 42 1
20 -7 75 -15 112 -3 14 -9 41 -12 60 -7 37 -40 151 -54 185 -4 11 -18 46 -30
78 -96 247 -293 509 -525 696 -38 31 -72 58 -75 61 -3 3 -38 27 -79 54 -138
90 -346 192 -476 234 -82 26 -170 51 -200 57 -11 3 -31 7 -45 10 -60 13 -135
26 -179 30 -19 3 -57 9 -85 14 -28 6 -73 13 -100 16 -72 9 -103 29 -114 75
-13 56 10 235 43 334 7 22 20 66 29 96 8 30 22 80 30 110 9 30 18 69 21 85 3
17 8 37 10 45 10 37 18 154 18 255 1 131 -9 219 -37 330 -25 95 -109 236 -195
323 -51 53 -152 132 -167 132 -4 0 -28 13 -53 28 -57 35 -157 73 -167 64 -4
-4 -4 2 0 13 5 15 4 17 -4 9 -8 -9 -22 -9 -47 -2 -61 17 -77 20 -118 21 -22 1
-46 8 -53 17 -8 8 -11 10 -7 3 4 -9 -8 -11 -45 -9 -30 1 -50 -2 -50 -8 0 -6
-4 -4 -9 4 -6 8 -7 18 -5 22 3 4 3 8 0 8 -3 0 -7 -3 -7 -7z"/>
<path d="M1894 5862 c4 -3 14 -7 22 -8 9 -1 13 0 10 4 -4 3 -14 7 -22 8 -9 1
-13 0 -10 -4z"/>
<path d="M1799 5793 c-13 -16 -12 -17 4 -4 9 7 17 15 17 17 0 8 -8 3 -21 -13z"/>
<path d="M1700 5760 c-8 -5 -10 -10 -5 -10 6 0 17 5 25 10 8 5 11 10 5 10 -5
0 -17 -5 -25 -10z"/>
<path d="M1653 5696 c-4 -5 -1 -6 7 -1 10 6 12 4 6 -10 -7 -18 -6 -18 14 0 11
10 20 19 20 19 0 7 -43 -1 -47 -8z"/>
<path d="M1550 5600 c0 -5 5 -10 11 -10 5 0 7 5 4 10 -3 6 -8 10 -11 10 -2 0
-4 -4 -4 -10z"/>
<path d="M1576 5571 c-4 -5 3 -7 14 -4 23 6 26 13 6 13 -8 0 -17 -4 -20 -9z"/>
<path d="M1570 5540 c0 -5 5 -10 11 -10 5 0 7 5 4 10 -3 6 -8 10 -11 10 -2 0
-4 -4 -4 -10z"/>
<path d="M1546 5498 c3 -4 9 -8 15 -8 5 0 9 4 9 8 0 5 -7 9 -15 9 -8 0 -12 -4
-9 -9z"/>
<path d="M1546 5460 c6 -8 10 -23 9 -32 -2 -9 4 -23 13 -30 15 -11 15 -11 6 2
-6 8 -10 23 -9 32 2 9 -4 23 -13 30 -15 11 -15 11 -6 -2z"/>
<path d="M1515 5451 c-3 -5 -2 -12 3 -15 5 -3 9 1 9 9 0 17 -3 19 -12 6z"/>
<path d="M1595 5271 c-3 -5 -2 -12 3 -15 5 -3 9 1 9 9 0 17 -3 19 -12 6z"/>
<path d="M2570 4020 c0 -5 5 -10 11 -10 5 0 7 5 4 10 -3 6 -8 10 -11 10 -2 0
-4 -4 -4 -10z"/>
<path d="M2501 3944 c0 -11 3 -14 6 -6 3 7 2 16 -1 19 -3 4 -6 -2 -5 -13z"/>
<path d="M2474 3931 c4 -5 1 -12 -4 -14 -6 -3 -5 -4 2 -3 15 3 23 26 8 26 -6
0 -9 -4 -6 -9z"/>
<path d="M2405 3879 c-4 -6 -5 -12 -2 -15 2 -3 7 2 10 11 7 17 1 20 -8 4z"/>
<path d="M2355 3869 c-4 -6 -5 -12 -2 -15 2 -3 7 2 10 11 7 17 1 20 -8 4z"/>
<path d="M2036 3787 c3 -10 9 -15 12 -12 3 3 0 11 -7 18 -10 9 -11 8 -5 -6z"/>
<path d="M2115 3780 c-3 -5 -1 -10 4 -10 6 0 11 5 11 10 0 6 -2 10 -4 10 -3 0
-8 -4 -11 -10z"/>
<path d="M2045 3740 c-3 -5 -2 -10 4 -10 5 0 13 5 16 10 3 6 2 10 -4 10 -5 0
-13 -4 -16 -10z"/>
<path d="M2010 3720 c-9 -6 -10 -10 -3 -10 6 0 15 5 18 10 8 12 4 12 -15 0z"/>
<path d="M1973 3707 c0 -7 9 -14 20 -14 11 -1 18 -1 16 0 -2 2 -11 8 -20 15
-12 9 -16 9 -16 -1z"/>
<path d="M1930 3680 c-9 -6 -10 -10 -3 -10 6 0 15 5 18 10 8 12 4 12 -15 0z"/>
<path d="M1875 3661 c-3 -6 5 -15 17 -21 21 -10 21 -10 6 3 -10 8 -15 17 -11
20 3 4 4 7 0 7 -3 0 -8 -4 -12 -9z"/>
<path d="M1907 3659 c7 -7 15 -10 18 -7 3 3 -2 9 -12 12 -14 6 -15 5 -6 -5z"/>
<path d="M1855 3620 c3 -5 8 -10 11 -10 2 0 4 5 4 10 0 6 -5 10 -11 10 -5 0
-7 -4 -4 -10z"/>
<path d="M1736 3573 c-6 -14 -5 -15 5 -6 7 7 10 15 7 18 -3 3 -9 -2 -12 -12z"/>
<path d="M1762 3554 c-7 -8 -17 -12 -23 -9 -5 4 -9 1 -9 -4 0 -16 15 -13 41 9
13 10 20 19 14 19 -5 0 -16 -6 -23 -15z"/>
<path d="M1650 3520 c0 -5 5 -10 11 -10 5 0 7 5 4 10 -3 6 -8 10 -11 10 -2 0
-4 -4 -4 -10z"/>
<path d="M1690 3500 c-9 -6 -10 -10 -3 -10 6 0 15 5 18 10 8 12 4 12 -15 0z"/>
<path d="M1566 3418 c3 -4 9 -8 15 -8 5 0 9 4 9 8 0 5 -7 9 -15 9 -8 0 -12 -4
-9 -9z"/>
<path d="M1510 3396 c0 -2 8 -10 18 -17 15 -13 16 -12 3 4 -13 16 -21 21 -21
13z"/>
<path d="M1495 3360 c-3 -5 -1 -10 4 -10 6 0 11 5 11 10 0 6 -2 10 -4 10 -3 0
-8 -4 -11 -10z"/>
<path d="M1336 3207 c3 -10 9 -15 12 -12 3 3 0 11 -7 18 -10 9 -11 8 -5 -6z"/>
<path d="M1291 3107 c-8 -10 -7 -14 2 -14 8 0 14 6 14 14 0 7 -1 13 -2 13 -2
0 -8 -6 -14 -13z"/>
<path d="M1196 2933 c-6 -14 -5 -15 5 -6 7 7 10 15 7 18 -3 3 -9 -2 -12 -12z"/>
<path d="M1080 2760 c-9 -6 -10 -10 -3 -10 6 0 15 5 18 10 8 12 4 12 -15 0z"/>
<path d="M590 1876 c0 -2 8 -10 18 -17 15 -13 16 -12 3 4 -13 16 -21 21 -21
13z"/>
<path d="M359 1693 c-13 -17 -13 -17 6 -3 11 8 22 16 24 17 2 2 0 3 -6 3 -6 0
-17 -8 -24 -17z"/>
<path d="M317 1669 c7 -7 15 -10 18 -7 3 3 -2 9 -12 12 -14 6 -15 5 -6 -5z"/>
<path d="M227 1619 c7 -7 15 -10 18 -7 3 3 -2 9 -12 12 -14 6 -15 5 -6 -5z"/>
<path d="M231 1587 c-8 -10 -7 -14 2 -14 8 0 14 6 14 14 0 7 -1 13 -2 13 -2 0
-8 -6 -14 -13z"/>
<path d="M4496 718 c3 -5 10 -6 15 -3 13 9 11 12 -6 12 -8 0 -12 -4 -9 -9z"/>
<path d="M4455 710 c-4 -6 -12 -7 -18 -4 -7 4 -9 4 -5 -1 4 -4 2 -15 -4 -24
-7 -9 0 -5 15 8 15 14 27 26 27 28 0 7 -9 3 -15 -7z"/>
<path d="M4350 606 c0 -2 9 -6 20 -9 11 -3 18 -1 14 4 -5 9 -34 13 -34 5z"/>
<path d="M4330 559 c0 -5 5 -7 10 -4 6 3 10 8 10 11 0 2 -4 4 -10 4 -5 0 -10
-5 -10 -11z"/>
<path d="M4286 538 c3 -5 10 -6 15 -3 13 9 11 12 -6 12 -8 0 -12 -4 -9 -9z"/>
<path d="M4115 381 c-3 -5 -2 -12 3 -15 5 -3 9 1 9 9 0 17 -3 19 -12 6z"/>
</g>
</svg>
